<svg width="128" height="128" viewBox="0 0 128 128" fill="none" xmlns="http://www.w3.org/2000/svg">
<rect x="50.0293" y="80.4426" width="3.85427" height="41.4334" transform="rotate(-135 50.0293 80.4426)" fill="#161A34"/>
<rect x="52.8926" y="51.9632" width="3.85427" height="26.9799" transform="rotate(-90 52.8926 51.9632)" fill="#161A34"/>
<rect x="79.8926" y="75.1088" width="3.85427" height="26.9799" transform="rotate(180 79.8926 75.1088)" fill="#161A34"/>
<path d="M71.4258 8.06446L70.8522 11.2714C70.7048 11.4077 70.4873 11.5474 70.1998 11.6904C69.9169 11.8303 69.5557 11.9303 69.1164 11.9906C68.677 12.0509 68.1478 12.0257 67.5287 11.915C67.0019 11.8208 66.5351 11.646 66.1284 11.3907C65.7224 11.1316 65.3908 10.8004 65.1335 10.3973C64.8801 9.99481 64.7112 9.53008 64.6269 9.00309C64.5433 8.47226 64.5586 7.8877 64.6728 7.24939L64.777 6.66684C64.8905 6.03238 65.0704 5.48123 65.3168 5.0134C65.5677 4.54241 65.8741 4.1607 66.2359 3.86828C66.5977 3.57586 67.0059 3.37904 67.4606 3.27781C67.9197 3.17343 68.4184 3.16939 68.9568 3.26568C69.6451 3.3888 70.1935 3.60595 70.6021 3.91714C71.0153 4.22517 71.3088 4.60306 71.4827 5.05083C71.6566 5.4986 71.7298 5.98788 71.7023 6.51868L70.2834 6.26488C70.2895 5.96439 70.2459 5.68675 70.1526 5.43196C70.0631 5.17787 69.9071 4.96344 69.6843 4.78868C69.4662 4.61077 69.1629 4.48708 68.7745 4.41761C68.44 4.35777 68.1345 4.3686 67.858 4.4501C67.5815 4.53159 67.3367 4.68026 67.1235 4.89609C66.9141 5.11261 66.7355 5.39018 66.5876 5.72881C66.4397 6.06744 66.3252 6.46362 66.2441 6.91736L66.1378 7.51144C66.0553 7.97287 66.0301 8.39098 66.0622 8.76578C66.0983 9.14127 66.1865 9.46857 66.3271 9.74768C66.4715 10.0275 66.6669 10.2549 66.9134 10.4299C67.1605 10.6011 67.4533 10.717 67.7917 10.7775C68.1224 10.8367 68.3983 10.8582 68.6194 10.8422C68.8412 10.8224 69.0205 10.785 69.1573 10.7301C69.2986 10.6721 69.4104 10.6127 69.4927 10.552L69.7909 8.88512L68.0432 8.57251L68.2362 7.49393L71.4258 8.06446Z" fill="#161A34"/>
<path d="M78.9619 12.9371L78.5978 14.0448L74.295 12.6304L74.6591 11.5227L78.9619 12.9371ZM77.3543 4.65569L74.6902 12.7603L73.2931 12.301L75.9572 4.19643L77.3543 4.65569ZM79.5872 9.13971L79.2286 10.2307L75.488 9.00113L75.8466 7.91012L79.5872 9.13971ZM81.2341 5.93102L80.8681 7.04429L76.5932 5.63905L76.9591 4.52578L81.2341 5.93102Z" fill="#161A34"/>
<path d="M87.7122 8.16682L83.8988 15.7983L82.5937 15.1462L86.4071 7.51466L87.7122 8.16682ZM90.1076 9.36375L89.5837 10.412L83.5089 7.3765L84.0327 6.32821L90.1076 9.36375Z" fill="#161A34"/>
<path d="M98.2363 14.0078L93.1176 20.8329L91.9411 19.9504L97.0598 13.1254L98.2363 14.0078Z" fill="#161A34"/>
<path d="M106.492 20.8175L100.265 26.6496L99.2597 25.5762L101.104 18.6059L96.6441 22.7836L95.6387 21.7102L101.865 15.8782L102.871 16.9516L101.025 23.9384L105.494 19.7527L106.492 20.8175Z" fill="#161A34"/>
<path d="M114.794 30.8637L107.386 35.0942L106.662 33.8273L114.071 29.5968L114.794 30.8637ZM116.122 33.1891L115.104 33.7702L111.737 27.8729L112.754 27.2918L116.122 33.1891Z" fill="#161A34"/>
<path d="M116.49 42.9229L116.048 43.0793C115.441 43.2943 114.868 43.408 114.329 43.4204C113.791 43.4328 113.3 43.3517 112.857 43.177C112.415 43.006 112.032 42.7481 111.707 42.4032C111.385 42.057 111.137 41.6353 110.961 41.1382C110.786 40.6448 110.715 40.1624 110.747 39.6911C110.784 39.2222 110.919 38.7786 111.152 38.3604C111.385 37.9423 111.714 37.5649 112.138 37.2285C112.563 36.8957 113.079 36.6218 113.687 36.4068L114.129 36.2504C114.736 36.0353 115.308 35.9241 115.844 35.9167C116.384 35.9079 116.875 35.9909 117.318 36.1656C117.766 36.3427 118.15 36.6025 118.47 36.945C118.796 37.2898 119.045 37.709 119.22 38.2024C119.396 38.6996 119.466 39.1844 119.43 39.657C119.398 40.1284 119.263 40.5719 119.025 40.9877C118.79 41.4022 118.46 41.774 118.034 42.1031C117.612 42.4346 117.098 42.7078 116.49 42.9229ZM115.558 41.6928L116.011 41.5325C116.46 41.3735 116.84 41.1892 117.151 40.9796C117.467 40.7724 117.711 40.5431 117.884 40.2916C118.061 40.0424 118.165 39.7755 118.197 39.4908C118.232 39.2047 118.196 38.9089 118.088 38.6032C117.98 38.2976 117.822 38.0466 117.616 37.8503C117.414 37.6526 117.164 37.5108 116.869 37.4248C116.578 37.3412 116.244 37.3165 115.867 37.3506C115.493 37.3835 115.082 37.4794 114.632 37.6384L114.179 37.7987C113.73 37.9577 113.348 38.1427 113.033 38.3536C112.718 38.5645 112.471 38.797 112.292 39.0511C112.117 39.3076 112.012 39.577 111.975 39.8593C111.942 40.1404 111.979 40.4338 112.088 40.7394C112.197 41.0487 112.353 41.3022 112.556 41.4999C112.762 41.6962 113.012 41.8355 113.306 41.9178C113.604 41.9988 113.941 42.0204 114.318 41.9826C114.695 41.9484 115.108 41.8519 115.558 41.6928Z" fill="#161A34"/>
<path d="M122.995 49.9823L123.253 51.4243L117.641 52.4281C117.003 52.5423 116.443 52.4995 115.963 52.2997C115.483 52.0999 115.091 51.7811 114.786 51.3435C114.486 50.9091 114.284 50.3996 114.179 49.8152C114.072 49.2115 114.083 48.6539 114.214 48.1424C114.348 47.6302 114.606 47.1991 114.988 46.8491C115.371 46.5029 115.881 46.2727 116.519 46.1585L122.132 45.1547L122.389 46.5966L116.777 47.6005C116.374 47.6727 116.053 47.8014 115.817 47.9866C115.584 48.1711 115.429 48.4013 115.351 48.6771C115.273 48.9529 115.265 49.2638 115.327 49.6099C115.389 49.9559 115.504 50.2429 115.672 50.4709C115.84 50.7026 116.066 50.8647 116.348 50.957C116.634 51.0487 116.979 51.0584 117.383 50.9862L122.995 49.9823Z" fill="#161A34"/>
<path d="M118.707 59.8258L118.736 61.2904C118.176 61.2543 117.675 61.1077 117.233 60.8505C116.794 60.5933 116.445 60.227 116.186 59.7514C115.927 59.2759 115.79 58.6944 115.777 58.007C115.767 57.4798 115.852 57.0034 116.031 56.578C116.214 56.1525 116.477 55.7861 116.818 55.4786C117.164 55.1711 117.583 54.9325 118.076 54.7628C118.569 54.597 119.122 54.5082 119.736 54.4964L120.444 54.4827C121.058 54.4709 121.614 54.5402 122.113 54.6908C122.612 54.8452 123.04 55.0714 123.398 55.3692C123.759 55.667 124.037 56.0269 124.233 56.449C124.429 56.875 124.532 57.3555 124.542 57.8906C124.555 58.5701 124.441 59.1467 124.2 59.6201C123.96 60.0936 123.621 60.4635 123.185 60.7298C122.748 61 122.246 61.1699 121.677 61.2395L121.648 59.7749C122.015 59.7288 122.327 59.6368 122.586 59.4989C122.846 59.365 123.041 59.1698 123.173 58.9133C123.309 58.6567 123.373 58.3234 123.365 57.9133C123.358 57.5774 123.29 57.2857 123.16 57.0382C123.03 56.7906 122.843 56.5852 122.597 56.422C122.352 56.2587 122.051 56.1375 121.694 56.0585C121.341 55.9833 120.938 55.95 120.485 55.9588L119.764 55.9727C119.334 55.981 118.945 56.0256 118.594 56.1066C118.248 56.1914 117.952 56.3143 117.705 56.4754C117.458 56.6403 117.269 56.8472 117.137 57.0958C117.005 57.3445 116.942 57.6407 116.949 57.9844C116.957 58.4023 117.03 58.7388 117.168 58.994C117.305 59.2531 117.503 59.4466 117.759 59.5745C118.019 59.7062 118.335 59.79 118.707 59.8258Z" fill="#161A34"/>
<path d="M120.784 69.808L119.633 69.6203L120.362 65.1501L121.513 65.3378L120.784 69.808ZM124.97 66.2699L116.55 64.8965L116.787 63.445L125.207 64.8183L124.97 66.2699ZM124.118 71.4977L115.698 70.1243L115.933 68.6785L124.353 70.0519L124.118 71.4977Z" fill="#161A34"/>
<path d="M108.781 98.3122L106.286 96.2181C106.241 96.0224 106.228 95.7643 106.247 95.4437C106.267 95.1287 106.36 94.7657 106.526 94.3546C106.693 93.9436 106.978 93.4972 107.382 93.0154C107.726 92.6055 108.11 92.2877 108.534 92.0621C108.961 91.8389 109.413 91.7162 109.891 91.6938C110.366 91.6744 110.853 91.7594 111.352 91.9486C111.854 92.1404 112.354 92.4447 112.851 92.8615L113.304 93.2419C113.798 93.6562 114.186 94.0867 114.469 94.5333C114.753 94.9854 114.931 95.4411 115.005 95.9005C115.078 96.3599 115.045 96.8119 114.907 97.2566C114.769 97.7067 114.524 98.1413 114.172 98.5602C113.723 99.0958 113.262 99.4634 112.788 99.6628C112.315 99.8678 111.842 99.9342 111.367 99.862C110.892 99.7899 110.431 99.6097 109.984 99.3216L110.911 98.2175C111.168 98.3724 111.431 98.4728 111.698 98.5187C111.963 98.5677 112.227 98.5391 112.489 98.4329C112.752 98.3323 113.011 98.1309 113.264 97.8286C113.483 97.5683 113.625 97.298 113.692 97.0176C113.759 96.7373 113.752 96.4509 113.671 96.1585C113.588 95.8692 113.436 95.5761 113.216 95.2792C112.996 94.9824 112.709 94.6858 112.356 94.3895L111.894 94.0016C111.535 93.7003 111.185 93.4703 110.844 93.3116C110.5 93.1558 110.172 93.0694 109.86 93.0524C109.546 93.0383 109.251 93.0946 108.977 93.2212C108.705 93.3503 108.459 93.5465 108.238 93.8098C108.022 94.0671 107.866 94.2957 107.77 94.4954C107.677 94.6976 107.62 94.8718 107.599 95.0177C107.579 95.1692 107.575 95.2957 107.587 95.3973L108.884 96.4858L110.025 95.1258L110.864 95.8301L108.781 98.3122Z" fill="#161A34"/>
<path d="M100.529 102.657L99.7502 101.788L103.123 98.7649L103.901 99.6331L100.529 102.657ZM108.508 105.395L102.813 99.0426L103.908 98.0609L109.603 104.413L108.508 105.395ZM103.508 105.093L102.741 104.238L105.673 101.609L106.439 102.465L103.508 105.093ZM105.467 108.121L104.685 107.248L108.035 104.245L108.818 105.117L105.467 108.121Z" fill="#161A34"/>
<path d="M100.456 112.45L95.7188 105.355L96.9323 104.545L101.669 111.64L100.456 112.45ZM98.2287 113.937L97.5781 112.962L103.226 109.192L103.877 110.166L98.2287 113.937Z" fill="#161A34"/>
<path d="M90.2699 118.605L86.8879 110.773L88.2382 110.19L91.6201 118.022L90.2699 118.605Z" fill="#161A34"/>
<path d="M79.9491 122.455L78.0322 114.142L79.4653 113.811L84.5668 118.906L83.1936 112.951L84.6267 112.621L86.5436 120.934L85.1105 121.264L79.995 116.16L81.3708 122.127L79.9491 122.455Z" fill="#161A34"/>
<path d="M67.1012 124.557L67.1671 116.026L68.626 116.037L68.5602 124.568L67.1012 124.557ZM64.4236 124.536L64.4326 123.364L71.2234 123.417L71.2144 124.588L64.4236 124.536Z" fill="#161A34"/>
<path d="M55.773 119.95L55.8591 119.489C55.9774 118.856 56.1661 118.303 56.4252 117.831C56.6843 117.359 57.0004 116.974 57.3735 116.679C57.7429 116.382 58.1582 116.179 58.6196 116.071C59.0802 115.966 59.5697 115.962 60.0881 116.059C60.6027 116.155 61.0558 116.335 61.4476 116.599C61.8349 116.866 62.151 117.205 62.3961 117.617C62.6411 118.028 62.803 118.501 62.8819 119.037C62.9569 119.571 62.9352 120.155 62.8169 120.789L62.7308 121.25C62.6125 121.883 62.4222 122.434 62.16 122.901C61.8971 123.373 61.5791 123.757 61.2059 124.052C60.8282 124.351 60.4109 124.554 59.9541 124.659C59.4927 124.768 59.0048 124.774 58.4903 124.678C57.9719 124.581 57.5171 124.399 57.1261 124.131C56.7343 123.867 56.4181 123.528 56.1776 123.113C55.9364 122.703 55.7802 122.23 55.7091 121.697C55.6334 121.166 55.6547 120.584 55.773 119.95ZM57.3048 119.759L57.2166 120.232C57.1291 120.7 57.0981 121.121 57.1235 121.496C57.1444 121.873 57.2206 122.199 57.352 122.474C57.4789 122.752 57.6576 122.976 57.8881 123.147C58.1179 123.321 58.3921 123.438 58.7108 123.497C59.0295 123.557 59.3255 123.546 59.5987 123.466C59.8713 123.39 60.1188 123.245 60.3414 123.033C60.5593 122.823 60.7481 122.546 60.9077 122.203C61.0665 121.863 61.1897 121.459 61.2772 120.99L61.3654 120.518C61.4529 120.049 61.4843 119.626 61.4596 119.248C61.4348 118.87 61.3574 118.539 61.2274 118.257C61.0929 117.977 60.9126 117.751 60.6867 117.578C60.46 117.408 60.1874 117.294 59.8687 117.234C59.5461 117.174 59.2486 117.182 58.976 117.258C58.7028 117.338 58.4568 117.485 58.2381 117.698C58.0187 117.916 57.8311 118.197 57.6754 118.541C57.5158 118.885 57.3923 119.291 57.3048 119.759Z" fill="#161A34"/>
<path d="M46.5038 122.059L45.1266 121.56L47.0692 116.2C47.2901 115.59 47.6074 115.127 48.0209 114.812C48.4343 114.496 48.9067 114.317 49.438 114.272C49.9642 114.23 50.5065 114.311 51.0647 114.513C51.6413 114.722 52.1181 115.011 52.4953 115.38C52.8712 115.753 53.1149 116.193 53.2266 116.699C53.3346 117.203 53.2781 117.76 53.0572 118.37L51.1146 123.73L49.7374 123.231L51.68 117.871C51.8198 117.485 51.8688 117.143 51.8271 116.846C51.7841 116.552 51.6626 116.302 51.4629 116.097C51.2631 115.891 50.9979 115.729 50.6674 115.609C50.3369 115.489 50.0309 115.445 49.7496 115.476C49.4647 115.506 49.2115 115.619 48.9901 115.818C48.7674 116.019 48.5861 116.313 48.4464 116.699L46.5038 122.059Z" fill="#161A34"/>
<path d="M40.0325 113.362L38.7525 112.649C39.0651 112.184 39.4438 111.825 39.8886 111.572C40.3316 111.322 40.8237 111.205 41.3651 111.22C41.9065 111.235 42.4776 111.41 43.0784 111.744C43.5392 112.001 43.9083 112.313 44.1858 112.682C44.4614 113.055 44.646 113.466 44.7398 113.916C44.8317 114.369 44.827 114.852 44.7257 115.363C44.6211 115.873 44.4196 116.395 44.1214 116.931L43.7767 117.551C43.4785 118.087 43.1388 118.532 42.7576 118.888C42.373 119.242 41.9621 119.498 41.5249 119.657C41.0859 119.82 40.6347 119.879 40.1715 119.836C39.7048 119.791 39.2377 119.638 38.7701 119.378C38.1761 119.048 37.7352 118.659 37.4471 118.213C37.1591 117.766 37.0097 117.288 36.9991 116.777C36.985 116.264 37.091 115.744 37.3171 115.217L38.5971 115.929C38.4527 116.269 38.3749 116.586 38.3637 116.879C38.3491 117.17 38.4195 117.437 38.5749 117.68C38.7284 117.927 38.9843 118.149 39.3427 118.349C39.6363 118.512 39.9227 118.6 40.2019 118.612C40.4811 118.625 40.753 118.566 41.0176 118.436C41.2821 118.306 41.5383 118.107 41.7863 117.838C42.0289 117.571 42.2604 117.239 42.4807 116.843L42.8312 116.213C43.0401 115.838 43.1976 115.478 43.3037 115.135C43.4045 114.793 43.4474 114.475 43.4324 114.181C43.414 113.884 43.3305 113.617 43.182 113.378C43.0334 113.138 42.8089 112.935 42.5086 112.768C42.1433 112.565 41.8158 112.459 41.5259 112.449C41.2326 112.438 40.9663 112.511 40.7267 112.668C40.4819 112.827 40.2505 113.058 40.0325 113.362Z" fill="#161A34"/>
<path d="M30.5682 110.262L31.3079 109.361L34.8091 112.234L34.0694 113.136L30.5682 110.262ZM31.5285 115.659L36.9407 109.064L38.0776 109.997L32.6654 116.592L31.5285 115.659ZM27.434 112.299L32.8462 105.704L33.9786 106.633L28.5663 113.228L27.434 112.299Z" fill="#161A34"/>
<path d="M11.9368 85.7652L14.9955 84.6437C15.1875 84.7022 15.4178 84.8196 15.6862 84.9957C15.9497 85.1696 16.2182 85.431 16.4918 85.78C16.7654 86.129 17.0105 86.5988 17.227 87.1892C17.4112 87.6917 17.4956 88.1829 17.4802 88.6628C17.4612 89.1441 17.3424 89.5975 17.124 90.0229C16.9042 90.4447 16.588 90.8248 16.1754 91.1633C15.7591 91.5032 15.2466 91.7847 14.6378 92.008L14.0822 92.2117C13.477 92.4336 12.9104 92.5561 12.3821 92.5792C11.8489 92.6 11.3648 92.5279 10.9298 92.3629C10.4948 92.1978 10.119 91.9445 9.80239 91.603C9.48075 91.2591 9.22579 90.8304 9.03752 90.317C8.7968 89.6605 8.7078 89.0774 8.77051 88.5676C8.8282 88.0555 9.00656 87.6115 9.30557 87.2355C9.60459 86.8596 9.99022 86.5497 10.4625 86.3058L10.9587 87.6591C10.6961 87.8053 10.4783 87.983 10.3053 88.192C10.131 88.3974 10.0245 88.6403 9.98592 88.9207C9.94228 89.1989 9.98837 89.5231 10.1242 89.8935C10.2412 90.2126 10.4046 90.471 10.6144 90.6687C10.8241 90.8663 11.076 91.0028 11.3699 91.0781C11.6624 91.1498 11.9922 91.1641 12.3592 91.121C12.7262 91.078 13.126 90.9771 13.5588 90.8184L14.1254 90.6107C14.5655 90.4493 14.9393 90.2602 15.2468 90.0435C15.5529 89.8231 15.791 89.5818 15.9612 89.3197C16.13 89.0539 16.2279 88.7705 16.2547 88.4694C16.278 88.1696 16.2304 87.8584 16.1121 87.5356C15.9964 87.2202 15.8759 86.9711 15.7506 86.7882C15.6216 86.6067 15.499 86.4707 15.3826 86.3802C15.2612 86.2874 15.1536 86.2208 15.0597 86.1803L13.4698 86.7633L14.081 88.4302L13.0523 88.8074L11.9368 85.7652Z" fill="#161A34"/>
<path d="M12.2876 76.4905L13.4286 76.2503L14.362 80.6823L13.221 80.9226L12.2876 76.4905ZM5.9281 82.0334L14.2762 80.2752L14.5793 81.7144L6.23119 83.4725L5.9281 82.0334ZM8.68843 77.8533L9.81221 77.6166L10.6237 81.4696L9.49987 81.7063L8.68843 77.8533ZM5.08647 78.0371L6.23319 77.7955L7.16056 82.199L6.01384 82.4405L5.08647 78.0371Z" fill="#161A34"/>
<path d="M3.80926 71.4022L12.3243 70.8759L12.4143 72.3321L3.89926 72.8584L3.80926 71.4022ZM3.64406 68.7295L4.8137 68.6573L5.23266 75.4353L4.06302 75.5076L3.64406 68.7295Z" fill="#161A34"/>
<path d="M3.57724 59.513L12.0515 60.4973L11.8818 61.9582L3.40756 60.9739L3.57724 59.513Z" fill="#161A34"/>
<path d="M5.37046 48.6979L13.5333 51.1777L13.1058 52.5849L6.14622 54.4695L11.9937 56.2459L11.5662 57.6531L3.40329 55.1733L3.83078 53.7661L10.805 51.8737L4.94637 50.0939L5.37046 48.6979Z" fill="#161A34"/>
<path d="M9.87766 36.6169L17.2389 40.929L16.5015 42.1879L9.14022 37.8758L9.87766 36.6169ZM11.2311 34.3064L12.2423 34.8987L8.80976 40.7584L7.79861 40.1661L11.2311 34.3064Z" fill="#161A34"/>
<path d="M19.5661 29.02L19.9218 29.3252C20.411 29.7449 20.7951 30.185 21.0741 30.6457C21.3531 31.1064 21.5273 31.5723 21.5965 32.0435C21.6684 32.5117 21.6357 32.9727 21.4987 33.4264C21.3587 33.8776 21.117 34.3033 20.7736 34.7035C20.4328 35.1008 20.0501 35.4029 19.6254 35.6099C19.2004 35.8114 18.7485 35.9152 18.2697 35.9214C17.7909 35.9275 17.3001 35.8307 16.7973 35.6309C16.297 35.4282 15.8023 35.1169 15.3131 34.6973L14.9573 34.3921C14.4681 33.9724 14.0868 33.532 13.8133 33.0709C13.5368 32.6073 13.3639 32.1399 13.2947 31.6687C13.225 31.192 13.2589 30.7296 13.3963 30.2813C13.5334 29.8276 13.7723 29.4021 14.1131 29.0049C14.4565 28.6046 14.842 28.3023 15.2696 28.0978C15.6942 27.8908 16.1461 27.787 16.6253 27.7864C17.1016 27.7832 17.5886 27.8845 18.0863 28.0902C18.5836 28.2904 19.0769 28.6003 19.5661 29.02ZM18.9642 30.4414L18.5996 30.1286C18.2379 29.8183 17.8886 29.5804 17.5519 29.415C17.2147 29.2441 16.8942 29.1468 16.5904 29.1229C16.2862 29.0935 16.0028 29.136 15.74 29.2503C15.4743 29.362 15.2359 29.5409 15.0248 29.787C14.8137 30.0331 14.6744 30.2944 14.6069 30.5711C14.5365 30.8451 14.5376 31.1318 14.6103 31.4309C14.6827 31.7246 14.8276 32.0265 15.0453 32.3368C15.26 32.6445 15.5481 32.9535 15.9098 33.2638L16.2745 33.5766C16.6362 33.8869 16.9869 34.126 17.3266 34.294C17.6664 34.4619 17.9911 34.5603 18.3008 34.5893C18.6101 34.6127 18.8963 34.5701 19.1595 34.4613C19.4197 34.35 19.6553 34.1713 19.8664 33.9252C20.0801 33.6762 20.2221 33.4146 20.2926 33.1405C20.3601 32.8639 20.3562 32.5774 20.2809 32.2812C20.2026 31.9825 20.0534 31.6795 19.8332 31.3722C19.6156 31.062 19.3259 30.7517 18.9642 30.4414Z" fill="#161A34"/>
<path d="M22.3689 19.9303L23.4876 18.9846L27.1682 23.3386C27.5868 23.8338 27.83 24.3392 27.8976 24.8549C27.9653 25.3706 27.886 25.8698 27.6599 26.3525C27.4342 26.8298 27.0946 27.2601 26.6412 27.6434C26.1728 28.0393 25.6846 28.3088 25.1764 28.452C24.6657 28.5921 24.1633 28.5846 23.669 28.4296C23.1778 28.272 22.7228 27.9456 22.3042 27.4504L18.6236 23.0965L19.7423 22.1508L23.4229 26.5047C23.6877 26.8179 23.9595 27.0306 24.2384 27.1427C24.5147 27.2517 24.7917 27.2708 25.0693 27.1998C25.3469 27.1288 25.6199 26.9799 25.8884 26.7529C26.1569 26.5259 26.3477 26.2828 26.4609 26.0234C26.5771 25.7615 26.6044 25.4852 26.5429 25.1945C26.4788 24.9009 26.3143 24.5975 26.0495 24.2842L22.3689 19.9303Z" fill="#161A34"/>
<path d="M33.182 18.602L34.4377 17.8477C34.6851 18.3507 34.8076 18.8581 34.8052 19.3699C34.8008 19.8783 34.657 20.3634 34.3739 20.8252C34.0908 21.2869 33.6545 21.6948 33.0652 22.0488C32.6131 22.3203 32.158 22.4844 31.6998 22.5409C31.2396 22.594 30.7911 22.5491 30.3542 22.4059C29.9153 22.2594 29.4995 22.0148 29.1068 21.672C28.7174 21.3272 28.3648 20.8919 28.049 20.3662L27.6839 19.7585C27.3681 19.2328 27.1511 18.716 27.0329 18.2083C26.9181 17.6985 26.9008 17.2145 26.9809 16.7563C27.0591 16.2947 27.2323 15.8739 27.5008 15.4939C27.7726 15.1119 28.1378 14.7831 28.5966 14.5075C29.1792 14.1575 29.7358 13.969 30.2664 13.9419C30.7969 13.9148 31.2864 14.0241 31.7347 14.2697C32.1863 14.5133 32.5841 14.8645 32.928 15.3232L31.6723 16.0775C31.4497 15.7829 31.2142 15.5576 30.9655 15.4016C30.7203 15.2437 30.4536 15.1714 30.1655 15.185C29.8755 15.1952 29.5546 15.3059 29.203 15.5171C28.9151 15.6901 28.6961 15.8945 28.5462 16.1304C28.3962 16.3663 28.3116 16.6313 28.2924 16.9254C28.2731 17.2195 28.3181 17.541 28.4275 17.89C28.5382 18.2336 28.7103 18.5996 28.9436 18.9881L29.3147 19.6059C29.536 19.9742 29.7689 20.29 30.0136 20.5531C30.2596 20.8109 30.5139 21.0067 30.7766 21.1406C31.0426 21.2724 31.3163 21.3336 31.5977 21.324C31.879 21.3145 32.1671 21.2212 32.4617 21.0442C32.82 20.829 33.0755 20.5981 33.2281 20.3515C33.3841 20.1028 33.4536 19.8355 33.4367 19.5495C33.4211 19.2581 33.3362 18.9422 33.182 18.602Z" fill="#161A34"/>
<path d="M40.4688 11.9803L40.8825 13.0705L36.6479 14.6775L36.2342 13.5874L40.4688 11.9803ZM35.3098 10.1278L38.3368 18.1039L36.9618 18.6258L33.9348 10.6496L35.3098 10.1278ZM40.262 8.24836L43.289 16.2245L41.9195 16.7443L38.8925 8.76811L40.262 8.24836Z" fill="#161A34"/>
</svg>
