<svg width="76" height="24" viewBox="0 0 76 24" fill="none" xmlns="http://www.w3.org/2000/svg">
<g clip-path="url(#clip0_266_7876)">
<path fill-rule="evenodd" clip-rule="evenodd" d="M47.4088 18.5807C43.0429 21.8972 36.7148 23.6666 31.2665 23.6666C23.627 23.6666 16.7494 20.7546 11.5463 15.9113C11.1375 15.5305 11.5038 15.0114 11.9944 15.308C17.6095 18.6751 24.5525 20.7007 31.7243 20.7007C36.5611 20.7007 41.882 19.6693 46.7744 17.5291C47.5135 17.2056 48.1316 18.0279 47.4088 18.5807Z" fill="#FF9900"/>
<path fill-rule="evenodd" clip-rule="evenodd" d="M49.2241 16.4404C48.6681 15.7057 45.5351 16.0933 44.1289 16.2652C43.7005 16.3191 43.6351 15.9349 44.021 15.6585C46.5162 13.8486 50.6107 14.371 51.0881 14.9777C51.5656 15.5877 50.9639 19.8176 48.619 21.8365C48.2593 22.1465 47.9159 21.9814 48.0762 21.5702C48.6027 20.2153 49.7833 17.1786 49.2241 16.4404Z" fill="#FF9900"/>
<path fill-rule="evenodd" clip-rule="evenodd" d="M44.2271 2.88149V1.12214C44.2271 0.855877 44.4233 0.677246 44.6588 0.677246H52.3015C52.5468 0.677246 52.743 0.859248 52.743 1.12214V2.62871C52.7398 2.88149 52.5337 3.21179 52.1674 3.7342L48.2071 9.56164C49.6787 9.52456 51.2321 9.75038 52.5664 10.5256C52.8673 10.7008 52.9491 10.957 52.972 11.2098V13.0871C52.972 13.3432 52.6972 13.6432 52.4095 13.4882C50.0581 12.2175 46.9349 12.0793 44.335 13.5016C44.0701 13.6499 43.7921 13.3533 43.7921 13.0972V11.3142C43.7921 11.0278 43.7954 10.5391 44.0734 10.1043L48.6616 3.32301H44.6686C44.4233 3.32301 44.2271 3.14438 44.2271 2.88149Z" fill="#1D1E25"/>
<path fill-rule="evenodd" clip-rule="evenodd" d="M16.3474 13.8586H14.0221C13.7998 13.8418 13.6232 13.6699 13.6068 13.4508V1.15222C13.6068 0.906179 13.8063 0.710694 14.0548 0.710694H16.2231C16.4487 0.720798 16.6286 0.899436 16.645 1.12188V2.72957H16.6875C17.2532 1.17581 18.3161 0.451172 19.7485 0.451172C21.2038 0.451172 22.113 1.17581 22.767 2.72957C23.3295 1.17581 24.6082 0.451172 25.9785 0.451172C26.953 0.451172 28.0192 0.865732 28.67 1.79596C29.4058 2.83068 29.2554 4.33388 29.2554 5.65171L29.2521 13.4137C29.2521 13.6598 29.0526 13.8586 28.8041 13.8586H26.4821C26.2499 13.8418 26.0635 13.6497 26.0635 13.4137V6.89539C26.0635 6.37634 26.1093 5.08211 25.9981 4.59003C25.8248 3.76428 25.3048 3.53172 24.6311 3.53172C24.0686 3.53172 23.48 3.91932 23.2412 4.53947C23.0025 5.15963 23.0254 6.19771 23.0254 6.89539V13.4137C23.0254 13.6598 22.8259 13.8586 22.5773 13.8586H20.2554C20.0199 13.8418 19.8368 13.6497 19.8368 13.4137L19.8335 6.89539C19.8335 5.52363 20.0526 3.50476 18.4011 3.50476C16.73 3.50476 16.7954 5.47307 16.7954 6.89539V13.4137C16.7954 13.6598 16.5959 13.8586 16.3474 13.8586" fill="#1D1E25"/>
<path fill-rule="evenodd" clip-rule="evenodd" d="M59.3228 0.451172C62.773 0.451172 64.6403 3.50476 64.6403 7.38747C64.6403 11.1387 62.5767 14.1148 59.3228 14.1148C55.9347 14.1148 54.0902 11.0612 54.0902 7.25602C54.0902 3.42724 55.9576 0.451172 59.3228 0.451172ZM59.3424 2.96213C57.6287 2.96213 57.5208 5.36859 57.5208 6.86842C57.5208 8.37163 57.4979 11.5803 59.3228 11.5803C61.1247 11.5803 61.2097 8.99178 61.2097 7.41443C61.2097 6.37635 61.1672 5.13604 60.8631 4.15188C60.6015 3.2958 60.0815 2.96213 59.3424 2.96213Z" fill="#1D1E25"/>
<path fill-rule="evenodd" clip-rule="evenodd" d="M69.1142 13.8586H66.7988C66.5666 13.8418 66.3802 13.6497 66.3802 13.4137L66.377 1.11177C66.3966 0.885954 66.5895 0.710694 66.825 0.710694H68.9801C69.1829 0.720798 69.3497 0.862362 69.3955 1.05448V2.93516H69.438C70.0888 1.25333 71.0012 0.451172 72.6069 0.451172C73.6502 0.451172 74.6672 0.838769 75.3213 1.90045C75.9296 2.8846 75.9296 4.53947 75.9296 5.72922V13.471C75.9034 13.6867 75.7105 13.8586 75.4816 13.8586H73.1498C72.9372 13.8418 72.7606 13.68 72.7378 13.471V6.7909C72.7378 5.44611 72.8882 3.47779 71.2825 3.47779C70.7167 3.47779 70.1967 3.86876 69.9383 4.46195C69.6113 5.21355 69.5688 5.96178 69.5688 6.7909V13.4137C69.5655 13.6598 69.3628 13.8586 69.1142 13.8586" fill="#1D1E25"/>
<path fill-rule="evenodd" clip-rule="evenodd" d="M38.1344 7.98407C38.1344 8.91768 38.1573 9.69624 37.6995 10.5254C37.3299 11.1994 36.7413 11.614 36.0905 11.614C35.1977 11.614 34.6744 10.913 34.6744 9.87824C34.6744 7.83578 36.4502 7.46503 38.1344 7.46503V7.98407ZM40.4793 13.825C40.3256 13.9665 40.1032 13.9767 39.9299 13.8823C39.1581 13.2217 39.0174 12.915 38.5956 12.2847C37.3201 13.6261 36.4142 14.0272 34.7627 14.0272C32.8038 14.0272 31.2831 12.7835 31.2831 10.2928C31.2831 8.34808 32.3034 7.02351 33.762 6.37639C35.0243 5.80342 36.7871 5.70231 38.1344 5.5439V5.23382C38.1344 4.66422 38.177 3.99014 37.8499 3.49806C37.5687 3.05654 37.0258 2.87454 36.5451 2.87454C35.6588 2.87454 34.8706 3.34302 34.6777 4.3137C34.6384 4.52941 34.4847 4.74174 34.2722 4.75186L32.0189 4.50244C31.8292 4.45863 31.6167 4.30022 31.6723 4.00026C32.189 1.1826 34.6613 0.333252 36.8721 0.333252C38.0036 0.333252 39.4818 0.64333 40.3746 1.52638C41.5062 2.61502 41.3982 4.06766 41.3982 5.64838V9.38279C41.3982 10.5051 41.8495 10.9972 42.2747 11.6039C42.4219 11.8196 42.4546 12.0791 42.2649 12.2409C41.7907 12.6487 40.9469 13.4071 40.4825 13.8317L40.4793 13.825" fill="#1D1E25"/>
<path fill-rule="evenodd" clip-rule="evenodd" d="M7.6514 7.98432C7.6514 8.91792 7.67429 9.69648 7.21645 10.5256C6.8469 11.1997 6.26151 11.6142 5.60744 11.6142C4.71464 11.6142 4.19466 10.9132 4.19466 9.87848C4.19466 7.83602 5.97045 7.46527 7.6514 7.46527V7.98432ZM9.99623 13.8252C9.84253 13.9668 9.62014 13.9769 9.44681 13.8825C8.67502 13.2219 8.53766 12.9152 8.11252 12.285C6.83709 13.6264 5.93448 14.0275 4.27968 14.0275C2.32402 14.0275 0.800049 12.7838 0.800049 10.293C0.800049 8.34832 1.82366 7.02375 3.27896 6.37663C4.54131 5.80366 6.30402 5.70255 7.6514 5.54414V5.23407C7.6514 4.66447 7.69392 3.99038 7.37015 3.49831C7.08563 3.05678 6.54276 2.87478 6.06529 2.87478C5.17903 2.87478 4.38761 3.34327 4.19466 4.31394C4.15541 4.52965 4.00171 4.74199 3.79241 4.7521L1.53587 4.50269C1.34619 4.45887 1.13689 4.30046 1.18922 4.0005C1.7092 1.18284 4.1783 0.333496 6.38905 0.333496C7.52059 0.333496 8.99878 0.643574 9.89158 1.52662C11.0231 2.61526 10.9152 4.0679 10.9152 5.64863V9.38303C10.9152 10.5054 11.3665 10.9975 11.7916 11.6041C11.9421 11.8198 11.9748 12.0794 11.7851 12.2411C11.3109 12.649 10.4672 13.4073 10.0028 13.832L9.99623 13.8252" fill="#1D1E25"/>
</g>
<defs>
<clipPath id="clip0_266_7876">
<rect width="75.1294" height="23.3333" fill="white" transform="translate(0.800049 0.333252)"/>
</clipPath>
</defs>
</svg>
