<svg width="75" height="22" viewBox="0 0 75 22" fill="none" xmlns="http://www.w3.org/2000/svg">
<g clip-path="url(#clip0_266_7888)">
<path d="M55.4143 21.2827L61.5463 14.5477L55.4143 7.81177H61.8842L64.9213 11.0836L67.8459 7.81177H74.0901L67.9872 14.5199L74.1739 21.2827H67.6774L64.6678 17.984L61.6867 21.2827H55.4143Z" fill="#FF6600"/>
<path d="M55.4143 4.79219H48.4693V7.81188H55.4143V12.3628H48.4693V16.54H55.4143V21.2828H43.3647V0.0625H55.4143V4.79219Z" fill="#FF6600"/>
<path d="M38.2819 0.0625V8.74688H38.226C37.1006 7.4825 35.6946 7.04312 34.0632 7.04312C30.7215 7.04312 28.2042 9.26375 27.3206 12.1997C26.3129 8.96469 23.7141 6.9825 19.8606 6.9825C16.7311 6.9825 14.2598 8.35563 12.9702 10.5931V7.81219H6.50153V4.79281H13.5607V0.0625H0.735229V21.2831H6.50153V12.3628H12.249C12.0776 13.0181 11.9862 13.7197 11.9862 14.46C11.9862 18.8866 15.4456 21.9925 19.8606 21.9925C23.5731 21.9925 26.0198 20.2887 27.3139 17.1825H22.3724C21.7039 18.1156 21.1969 18.3928 19.8606 18.3928C18.311 18.3928 16.975 17.0713 16.975 15.5047H27.037C27.4734 19.0206 30.2752 22.0528 34.1201 22.0528C35.7787 22.0528 37.2973 21.2553 38.226 19.9088H38.2819V21.2825H43.365V0.0625H38.2819ZM17.1355 12.4262C17.4561 11.0784 18.5255 10.1975 19.8606 10.1975C21.3302 10.1975 22.3452 11.0512 22.6121 12.4262C22.7247 12.4262 17.1355 12.4262 17.1355 12.4262ZM35.1972 18.0519C33.3235 18.0519 32.1591 16.3453 32.1591 14.5634C32.1591 12.6587 33.1719 10.8272 35.1972 10.8272C37.2973 10.8272 38.1339 12.6587 38.1339 14.5634C38.1336 16.3697 37.2471 18.0519 35.1972 18.0519Z" fill="#652C8F"/>
</g>
<defs>
<clipPath id="clip0_266_7888">
<rect width="73.5294" height="21.875" fill="white" transform="translate(0.735229 0.0625)"/>
</clipPath>
</defs>
</svg>
