<svg width="89" height="22" viewBox="0 0 89 22" fill="none" xmlns="http://www.w3.org/2000/svg">
<g clip-path="url(#clip0_266_7909)">
<path d="M31.7826 8.05375V9.21081H31.8185C32.2399 8.59132 32.9396 7.86176 34.4905 7.86176C35.697 7.86176 36.6226 8.46845 37.0193 9.38488H37.0551C37.3939 8.92155 37.7823 8.57084 38.2176 8.32254C38.7327 8.02815 39.3057 7.8592 40.0274 7.8592C41.6609 7.8592 43.1071 8.90875 43.1071 11.5556V16.5755H40.6169V11.9063C40.6169 10.565 40.1266 9.78934 39.1073 9.78934C38.3608 9.78934 37.8181 10.2552 37.6115 10.8286C37.5399 11.0258 37.5069 11.2945 37.5069 11.5198V16.5781H35.0166V11.7169C35.0166 10.5778 34.5456 9.78678 33.5401 9.78678C32.7358 9.78678 32.2317 10.3755 32.0251 10.8798C31.9369 11.0949 31.9094 11.3432 31.9094 11.5761V16.5755H29.4164V8.05375H31.7826ZM55.9604 8.05375V9.66134H56.0293C56.4866 8.43261 57.5719 7.86176 58.5251 7.86176C58.7647 7.86176 58.8969 7.87968 59.0898 7.91552V10.1477C58.8611 10.117 58.649 10.0863 58.3515 10.0863C57.2717 10.0863 56.5196 10.6699 56.3296 11.5838C56.2883 11.7732 56.2745 11.978 56.2745 12.2135V16.5781H53.7181V8.05375H55.9604ZM62.5607 5.23022V7.91296H64.7203V10.0837H62.5607V13.2861C62.5607 14.3229 62.8444 14.8246 63.6873 14.8246C64.084 14.8246 64.376 14.7785 64.6294 14.7196L64.6625 16.5192C64.3236 16.637 63.6019 16.765 62.8692 16.765C62.007 16.765 61.288 16.4859 60.85 16.0533C60.3487 15.5593 60.1173 14.7503 60.1173 13.5984V5.23022H62.5607ZM27.6809 16.5755H25.2017V5.23022H27.6809V16.5755ZM21.0697 13.5319C21.0697 13.688 21.0559 13.8518 21.0091 13.9926C20.8163 14.584 20.1579 15.0831 19.337 15.0831C18.6511 15.0831 18.1057 14.7222 18.1057 13.9568C18.1057 12.7869 19.494 12.4618 21.0725 12.4695V13.5319H21.0697ZM23.5462 11.4916C23.5462 9.55895 22.6592 7.86176 19.6593 7.86176C18.1194 7.86176 16.8964 8.26366 16.2297 8.62204L16.7173 10.1733C17.3261 9.81494 18.2985 9.52055 19.2186 9.52055C20.7419 9.51799 20.9898 10.3218 20.9898 10.8363V10.9592C17.6704 10.9541 15.5741 12.0215 15.5741 14.1974C15.5741 15.526 16.6402 16.7701 18.4968 16.7701C19.64 16.7701 20.5931 16.3477 21.1661 15.6693H21.2212C21.2212 15.6693 21.6014 17.1413 23.6894 16.5781C23.5792 15.9637 23.5434 15.311 23.5434 14.5251V11.4916H23.5462ZM3.12023 5.23022C3.37641 6.4308 4.10365 9.91733 4.10365 9.91733C4.40942 11.3509 4.6904 12.8535 4.90251 14.0413H4.94107C5.14767 12.7793 5.47272 11.5838 5.81981 10.1042L7.04564 5.23022H9.759L10.9049 10.2296C11.2052 11.6196 11.4449 12.6922 11.6349 13.985H11.6707C11.8773 12.6794 12.1473 11.5633 12.4421 10.1349L13.5439 5.23022H16.1471L12.9214 16.5755C10.8664 16.9928 10.0785 16.2248 9.79757 15.0063C9.51659 13.7853 8.96565 11.4635 8.96565 11.4635C8.68192 10.1912 8.46155 9.29528 8.30729 7.98976H8.26872C8.04835 9.28249 7.81695 10.1887 7.47537 11.4609L6.12283 16.5781C4.02376 16.9672 3.29653 16.3912 2.89435 14.8271C2.54726 13.4883 0.38208 5.23278 0.38208 5.23278H3.12023V5.23022ZM49.5861 13.5319C49.5861 13.688 49.5724 13.8518 49.5255 13.9926C49.3327 14.584 48.6743 15.0831 47.8534 15.0831C47.1675 15.0831 46.6221 14.7222 46.6221 13.9568C46.6221 12.7869 48.0104 12.4618 49.5889 12.4695V13.5319H49.5861ZM52.0626 11.4916C52.0626 9.55895 51.1756 7.86176 48.1757 7.86176C46.6359 7.86176 45.4128 8.26366 44.7462 8.62204L45.2337 10.1733C45.8425 9.81494 46.8149 9.52055 47.735 9.52055C49.2556 9.51799 49.5062 10.3218 49.5062 10.8363V10.9592C46.1896 10.9541 44.0933 12.0215 44.0933 14.1974C44.0933 15.526 45.1621 16.7701 47.016 16.7701C48.1564 16.7701 49.1123 16.3477 49.6825 15.6693H49.7404C49.7404 15.6693 50.1205 17.1413 52.2086 16.5781C52.0984 15.9637 52.0626 15.311 52.0626 14.5251V11.4916Z" fill="#041E42"/>
<path d="M74.7701 12.6681C75.0145 13.0824 74.998 13.5448 74.7372 13.756L70.2285 16.8327C69.759 17.0973 69.0561 16.7765 68.6579 16.1056C68.257 15.432 68.3284 14.6809 68.798 14.4162L73.7899 12.1548C74.1029 12.0372 74.5258 12.2537 74.7701 12.6681ZM80.7039 12.6681C80.951 12.2537 81.3711 12.0399 81.6841 12.1522L86.6788 14.4136C87.1483 14.6782 87.217 15.4293 86.8188 16.1029C86.4179 16.7738 85.7122 17.0919 85.2455 16.83L80.7368 13.7533C80.4787 13.5448 80.4595 13.0797 80.7039 12.6681ZM77.7356 14.336C78.2271 14.336 78.6308 14.582 78.6857 14.9054L79.1717 20.2461C79.1717 20.7754 78.5374 21.2084 77.7384 21.2084C76.9421 21.2084 76.305 20.7754 76.305 20.2461L76.7883 14.9054C76.8432 14.582 77.2469 14.336 77.7356 14.336ZM80.7368 8.24685L85.2455 5.16751C85.7122 4.90288 86.4179 5.22097 86.8188 5.89458C87.217 6.56818 87.1483 7.31931 86.6788 7.58394L81.6841 9.848C81.3711 9.96027 80.9482 9.74643 80.7039 9.33211C80.4595 8.91779 80.4787 8.45535 80.7368 8.24685ZM73.7899 9.848L68.798 7.58394C68.3312 7.31931 68.2598 6.56818 68.6579 5.89458C69.0561 5.22097 69.7617 4.90288 70.2285 5.16751L74.7372 8.24685C74.998 8.45268 75.0145 8.91779 74.7701 9.33211C74.5258 9.74643 74.1029 9.96027 73.7899 9.848ZM76.7883 7.09477L76.305 1.75404C76.305 1.22478 76.9393 0.791748 77.7384 0.791748C78.5374 0.791748 79.1717 1.22478 79.1717 1.75404L78.6857 7.09477C78.6308 7.41554 78.2271 7.66413 77.7356 7.66413C77.2469 7.66413 76.8432 7.41554 76.7883 7.09477ZM88.038 16.8113V16.6776H88.1615C88.2027 16.6776 88.2302 16.7043 88.2302 16.7444C88.2302 16.7819 88.2027 16.8113 88.1615 16.8113H88.038ZM87.9364 17.0545C87.9364 17.0679 87.9473 17.0812 87.9638 17.0812H88.016C88.0297 17.0812 88.0434 17.0679 88.0434 17.0545V16.9022H88.1286L88.1972 17.0625C88.2027 17.0732 88.211 17.0812 88.2219 17.0812H88.2851C88.3043 17.0812 88.318 17.0625 88.3098 17.0438C88.2851 16.9957 88.2604 16.9449 88.2357 16.8941C88.2769 16.8808 88.34 16.8407 88.34 16.7444C88.34 16.6429 88.2549 16.5841 88.1698 16.5841H87.9638C87.9501 16.5841 87.9364 16.5974 87.9364 16.6108V17.0545ZM87.714 16.8327C87.714 16.6161 87.8952 16.4397 88.1176 16.4397C88.34 16.4397 88.5212 16.6135 88.5212 16.8327C88.5212 17.0492 88.3427 17.2256 88.1176 17.2256C87.8924 17.2256 87.714 17.0492 87.714 16.8327ZM87.6179 16.8327C87.6179 17.1 87.8403 17.3191 88.1176 17.3191C88.3922 17.3191 88.6173 17.1 88.6173 16.8327C88.6173 16.5653 88.3922 16.3462 88.1176 16.3462C87.8403 16.3462 87.6179 16.5653 87.6179 16.8327Z" fill="#FFC124"/>
</g>
<defs>
<clipPath id="clip0_266_7909">
<rect width="88.2353" height="20.4167" fill="white" transform="translate(0.38208 0.791748)"/>
</clipPath>
</defs>
</svg>
