<svg width="72" height="26" viewBox="0 0 72 26" fill="none" xmlns="http://www.w3.org/2000/svg">
<path fill-rule="evenodd" clip-rule="evenodd" d="M63.2625 12.1552L58.713 20.0553L54.8314 20.0708L63.2625 5.20119L71.6621 20.0708H67.719L63.2625 12.1545V12.1552ZM51.0121 16.6317H55.3595L53.3411 20.0708H47.6747L47.6901 15.8833V5.2926H51.0283L51.0129 16.6317H51.0121ZM39.0892 5.29338C43.2344 5.30887 46.5879 8.60927 46.5725 12.689C46.5571 16.7541 43.2036 20.0553 39.0577 20.0553C34.9278 20.0398 31.5743 16.7394 31.5743 12.6588C31.5897 8.59377 34.9432 5.29338 39.0892 5.29338ZM39.0738 16.617C41.2936 16.617 43.0783 14.8591 43.0783 12.689C43.0945 10.5198 41.2936 8.7464 39.0892 8.7464C36.884 8.7309 35.0831 10.5043 35.0831 12.6743C35.0677 14.8436 36.8686 16.617 39.073 16.617H39.0738ZM25.3953 11.5153C25.3492 10.9033 25.1931 10.0937 24.9603 9.31505C24.481 7.70679 23.6479 6.22827 22.5229 4.98968C21.9326 4.3482 21.2655 3.75165 20.2709 3.04896C19.5127 2.67181 18.7672 2.26924 18.0357 1.84191C17.5545 1.56688 16.9796 1.22987 16.2194 0.985827C15.3181 0.77138 14.3967 0.653739 13.4708 0.63487C12.5715 0.60388 11.6699 0.681354 10.8006 0.848698C9.8844 1.00132 9.12346 1.24536 8.11425 1.49018C5.83142 2.4834 4.06204 3.98097 2.54016 5.96818C-2.76952 13.4405 2.02825 23.9088 10.8936 25.1461C12.3532 25.3452 13.8128 25.2685 15.1941 24.9478L16.1725 24.6882C16.2033 24.6727 16.2502 24.6572 16.2809 24.6572L17.3993 24.2296C17.4608 24.1986 17.5076 24.1831 17.5699 24.1529L18.0357 23.939C18.9294 23.4945 19.7683 22.9458 20.5353 22.3043C19.8371 22.9437 19.0779 23.5118 18.2686 24.0002L18.3147 24.0312C18.4707 23.9847 18.6099 23.939 18.7651 23.9088C18.7651 23.9088 18.7651 24.1529 18.7344 24.1072C18.4861 24.2908 18.8743 24.1227 19.3708 23.8623C19.8681 23.6028 20.3493 23.2813 20.7835 22.9148C21.4207 22.3803 21.9795 21.7992 22.7712 20.8525C23.5783 19.4308 24.5882 18.1928 25.054 16.5271C25.2093 16.084 25.3484 15.5649 25.4422 15.0295C25.5344 14.495 25.5974 13.9449 25.5974 13.3793C25.5821 12.8138 25.5198 12.2327 25.3953 11.5153ZM13.9059 24.0769C16.623 23.6485 18.905 22.1362 20.7682 20.0731C21.2808 19.3239 21.6844 18.6359 22.1809 17.8875C22.8019 16.359 22.7558 14.9993 22.9572 14.0371C23.2062 12.2939 22.6159 10.8885 22.1194 9.39098C21.3585 7.64859 20.3493 6.35012 18.5791 5.34141C14.1072 2.5601 8.02124 3.33871 5.11814 7.49596C5.10276 7.49596 5.02436 7.60288 4.8691 7.81671C5.07125 6.96139 5.58392 6.45704 6.09583 5.9674C7.61771 4.71465 9.38786 3.72066 11.4063 3.23257C13.6891 2.98775 15.955 3.23257 17.9888 4.22579C21.0326 5.9674 23.051 8.70378 23.5629 11.9422V14.9381C22.9265 19.8438 18.7344 23.5726 13.9059 24.0769ZM25.0694 12.9207C24.9603 5.73885 17.8651 0.894407 10.9559 1.8729C8.93745 2.37648 6.73225 3.3852 5.16425 4.79135C4.40331 5.29493 4.04667 6.22772 3.28573 6.97611C0.241964 11.4541 0.77078 17.1849 4.55858 20.6696C5.04445 21.1538 5.56325 21.6032 6.1112 22.0146C2.94446 20.1033 1.51558 17.2143 1.01905 13.7009C1.01905 12.4473 1.26731 11.2093 1.53095 9.95654C3.30187 4.46983 8.87519 0.481471 14.9466 1.49018C15.9558 1.735 16.965 1.99454 17.9903 2.23936C19.2632 2.74294 20.5207 3.49211 21.5299 4.4861C22.5391 5.47854 23.3 6.73207 24.061 7.96933C24.5729 8.96332 24.8219 10.2161 25.0702 11.2093C25.1163 11.7749 25.1163 12.3559 25.0702 12.9215L25.0694 12.9207Z" fill="#1D1E25"/>
</svg>
