<svg width="76" height="24" viewBox="0 0 76 24" fill="none" xmlns="http://www.w3.org/2000/svg">
<g clip-path="url(#clip0_266_7872)">
<path d="M21.7103 16.8698C21.5915 16.5854 21.4801 16.2864 21.3613 16.0312L20.8119 14.8135L20.7896 14.7917C19.1561 11.2917 17.4112 7.73332 15.5624 4.23332L15.4881 4.08748C15.3025 3.74478 15.1169 3.36561 14.9238 3.01561C14.6862 2.59998 14.456 2.15519 14.0774 1.73228C13.7082 1.28977 13.2437 0.933246 12.7173 0.688441C12.1908 0.443635 11.6156 0.31665 11.0331 0.31665C10.4506 0.31665 9.87539 0.443635 9.34895 0.688441C8.8225 0.933246 8.35796 1.28977 7.98884 1.73228C7.63986 2.15519 7.37999 2.59998 7.14239 3.01561C6.95676 3.39478 6.77114 3.76665 6.57808 4.10936L6.50383 4.25519C4.6847 7.75519 2.91012 11.3135 1.27661 14.8135L1.23206 14.8573C1.06871 15.2364 0.875662 15.6302 0.690037 16.0531C0.571236 16.3083 0.452436 16.5854 0.333635 16.8917C0.0128981 17.6936 -0.0895234 18.5637 0.0364648 19.4164C0.162453 20.269 0.512502 21.0747 1.05211 21.754C1.59173 22.4334 2.30227 22.9629 3.11373 23.2904C3.92519 23.6179 4.80955 23.7322 5.67966 23.6219C6.51384 23.514 7.31708 23.2412 8.04082 22.8198C9.00607 22.2875 9.9342 21.5146 10.9737 20.3989C12.0132 21.5146 12.9636 22.2875 13.9066 22.8271C14.8134 23.3498 15.8403 23.6383 16.8915 23.6656C18.1087 23.6706 19.2866 23.2429 20.2078 22.4615C21.129 21.6802 21.7313 20.5979 21.9033 19.4146C22.1022 18.5642 22.0349 17.6747 21.7103 16.8625V16.8698ZM11.048 18.0802C9.77085 16.476 8.93924 15.0031 8.65709 13.7417C8.5402 13.2742 8.515 12.7892 8.58284 12.3125C8.63482 11.9406 8.77589 11.6125 8.96894 11.3354C9.41445 10.701 10.1941 10.3073 11.048 10.3073C11.4535 10.2951 11.8557 10.382 12.2186 10.5602C12.5814 10.7384 12.8936 11.0022 13.127 11.3281C13.32 11.6198 13.4611 11.9406 13.5056 12.3125C13.5799 12.7354 13.5502 13.2239 13.4314 13.7417C13.1492 14.9812 12.3176 16.4687 11.048 18.0802ZM20.5074 19.1594C20.4231 19.7602 20.1799 20.3288 19.8021 20.8085C19.4243 21.2883 18.9251 21.6624 18.3542 21.8937C17.7899 22.1271 17.1662 22.1927 16.5573 22.1271C15.9633 22.0542 15.3693 21.8646 14.7605 21.5146C13.7496 20.901 12.8405 20.1386 12.0652 19.2542C13.6244 17.3583 14.5674 15.6302 14.9238 14.0917C15.0946 13.3625 15.1169 12.7062 15.0426 12.101C14.9499 11.5274 14.7321 10.9802 14.4041 10.4969C14.0295 9.97278 13.5297 9.54708 12.9483 9.25719C12.367 8.9673 11.7221 8.8221 11.0702 8.83436C9.6966 8.83436 8.47147 9.46144 7.72896 10.4896C7.39472 10.9717 7.1787 11.5232 7.09784 12.101C7.00131 12.7135 7.02359 13.3917 7.21664 14.0917C7.57304 15.6302 8.53829 17.3802 10.0753 19.2687C9.31308 20.1701 8.40194 20.9392 7.37999 21.5437C6.76371 21.8937 6.17713 22.076 5.58313 22.1489C4.65937 22.2651 3.72624 22.0186 2.98657 21.4629C2.2469 20.9072 1.76047 20.0872 1.63302 19.1812C1.55876 18.5979 1.61074 18.0146 1.84834 17.3583C1.92259 17.125 2.03397 16.8917 2.15277 16.6146C2.31612 16.2354 2.50917 15.8417 2.69479 15.4479L2.72449 15.3969C4.3283 11.9187 6.08061 8.36769 7.89974 4.88957L7.97399 4.74373C8.15962 4.39373 8.34524 4.02186 8.53829 3.67186C8.73134 3.29998 8.93924 2.94269 9.20654 2.65103C9.43792 2.37979 9.72703 2.16166 10.0535 2.012C10.38 1.86233 10.7359 1.78477 11.0962 1.78477C11.4565 1.78477 11.8124 1.86233 12.1389 2.012C12.4654 2.16166 12.7545 2.37979 12.9859 2.65103C13.2458 2.94269 13.4611 3.29998 13.6541 3.67186C13.8398 4.02186 14.0254 4.40103 14.2184 4.74373L14.2927 4.88957C16.1044 8.36769 17.8567 11.9187 19.4902 15.3969L19.5125 15.4187C19.7055 15.7979 19.8689 16.2208 20.0545 16.5854C20.1733 16.8698 20.2921 17.0958 20.3664 17.3364C20.5074 17.9927 20.5817 18.576 20.5074 19.1594ZM30.8431 17.9198C30.2836 17.9278 29.7294 17.812 29.2217 17.581C28.714 17.35 28.2657 17.0098 27.9102 16.5854C27.1113 15.6812 26.6873 14.5154 26.7222 13.3187C26.71 12.0961 27.1476 10.9102 27.9547 9.97915C28.3281 9.54939 28.7928 9.20524 29.3162 8.97091C29.8396 8.73659 30.409 8.6178 30.9842 8.6229C31.5254 8.60835 32.0615 8.72921 32.5421 8.97412C33.0227 9.21902 33.4319 9.57993 33.7314 10.0229L33.8057 8.87811H35.9738V17.6864H33.7982L33.724 16.4031C33.4152 16.8761 32.9885 17.2637 32.4843 17.5292C31.98 17.7946 31.4151 17.9291 30.8431 17.9198ZM31.4074 15.8198C31.838 15.8198 32.2167 15.7031 32.5731 15.4917C32.8998 15.2583 33.1671 14.9521 33.375 14.5802C33.5606 14.2083 33.6572 13.7635 33.6572 13.2677C33.6861 12.837 33.6007 12.4064 33.4094 12.0178C33.2181 11.6293 32.9274 11.2962 32.5657 11.051C32.2181 10.8384 31.8169 10.7257 31.4074 10.7257C30.9979 10.7257 30.5966 10.8384 30.2491 11.051C29.9224 11.2844 29.6551 11.5906 29.4472 11.9625C29.2508 12.3726 29.1542 12.8219 29.165 13.275C29.1361 13.7056 29.2214 14.1363 29.4128 14.5248C29.6041 14.9134 29.8948 15.2465 30.2565 15.4917C30.6055 15.7031 30.9842 15.8198 31.4074 15.8198ZM39.6863 6.50103C39.6863 6.75623 39.6417 6.98957 39.5229 7.17915C39.4041 7.36144 39.2408 7.52915 39.0255 7.64582C38.8101 7.76248 38.58 7.80623 38.3424 7.80623C38.1048 7.80623 37.8672 7.76248 37.6518 7.64582C37.4482 7.53448 37.2769 7.37383 37.1544 7.17915C37.0394 6.97143 36.983 6.73732 36.991 6.50103C36.991 6.23853 37.043 6.00519 37.1544 5.8229C37.2732 5.60415 37.4439 5.4729 37.6518 5.35623C37.8672 5.23957 38.0973 5.18853 38.3424 5.18853C38.5787 5.18318 38.8124 5.23815 39.0207 5.34806C39.2289 5.45798 39.4045 5.61908 39.5304 5.81561C39.6384 6.0282 39.6919 6.26349 39.6863 6.50103ZM37.1618 17.6573V8.86353H39.5229V17.6719H37.1544L37.1618 17.6573ZM45.8342 11.1677V11.1969C45.7228 11.1458 45.5743 11.1239 45.463 11.1021C45.3145 11.0729 45.1957 11.0729 45.0546 11.0729C44.3938 11.0729 43.8963 11.2625 43.5696 11.6562C43.2132 12.0573 43.0498 12.6187 43.0498 13.3406V17.6646H40.6812V8.85623H42.8568L42.931 10.1906C43.1686 9.72394 43.4508 9.37394 43.8517 9.11144C44.2506 8.85639 44.7201 8.72902 45.1957 8.74686C45.3664 8.74686 45.5298 8.76144 45.6709 8.79061C45.7451 8.81248 45.7897 8.81248 45.8342 8.83436V11.1677ZM46.7846 17.6573V5.24686H49.1458V9.98644C49.4799 9.56353 49.8586 9.2354 50.3338 8.98019C51.0861 8.61797 51.9407 8.51522 52.7598 8.68852C53.5788 8.86183 54.3145 9.30108 54.8482 9.9354C55.6489 10.8415 56.073 12.0102 56.0362 13.2094C56.0484 14.432 55.6107 15.6179 54.8036 16.5489C54.4303 16.9787 53.9656 17.3229 53.4422 17.5572C52.9188 17.7915 52.3494 17.9103 51.7742 17.9052C51.233 17.9197 50.6969 17.7989 50.2163 17.554C49.7357 17.3091 49.3265 16.9482 49.027 16.5052L48.9527 17.65L46.7846 17.6719V17.6573ZM51.351 15.8198C51.7742 15.8198 52.1529 15.7031 52.5093 15.4917C52.836 15.2583 53.1033 14.9521 53.3112 14.5802C53.5043 14.2083 53.5934 13.7635 53.5934 13.2677C53.5934 12.7792 53.5043 12.3344 53.3112 11.9625C53.1162 11.6039 52.8423 11.2925 52.5093 11.051C52.1618 10.8384 51.7605 10.7257 51.351 10.7257C50.9415 10.7257 50.5402 10.8384 50.1927 11.051C49.8586 11.2844 49.5987 11.5906 49.3834 11.9625C49.187 12.3726 49.0904 12.8219 49.1012 13.275C49.0723 13.7056 49.1576 14.1363 49.349 14.5248C49.5403 14.9134 49.831 15.2465 50.1927 15.4917C50.5417 15.7031 50.9204 15.8198 51.351 15.8198ZM56.9272 17.6646V8.85623H59.1027L59.177 10.001C59.4504 9.5622 59.8382 9.20307 60.3003 8.96079C60.7624 8.7185 61.282 8.60185 61.8055 8.6229C62.404 8.61275 62.9923 8.77611 63.4968 9.09256C64.0013 9.40901 64.3995 9.8645 64.6418 10.4021C64.9017 10.9562 65.0428 11.6417 65.0428 12.4073V17.6864H62.6742V12.7135C62.6742 12.101 62.5331 11.6198 62.251 11.2625C61.9688 10.9125 61.5827 10.7229 61.0927 10.7229C60.7362 10.7229 60.4244 10.7958 60.1497 10.9562C59.8898 11.1239 59.6745 11.3354 59.5111 11.6344C59.346 11.9366 59.2641 12.2759 59.2735 12.6187V17.6646H56.9272ZM66.2234 17.6646V5.23957H68.5919V9.97915C68.9128 9.55387 69.3301 9.20789 69.8109 8.96867C70.2916 8.72945 70.8225 8.60357 71.3615 8.60103C71.921 8.59299 72.4751 8.70876 72.9829 8.93976C73.4906 9.17076 73.9388 9.51105 74.2943 9.9354C75.0893 10.8414 75.5104 12.0066 75.4749 13.2021C75.4878 14.4248 75.0501 15.611 74.2424 16.5417C73.869 16.9714 73.4043 17.3156 72.8809 17.5499C72.3575 17.7842 71.7882 17.903 71.213 17.8979C70.6717 17.9124 70.1356 17.7916 69.655 17.5467C69.1744 17.3018 68.7652 16.9409 68.4657 16.4979L68.3989 17.6427L66.2234 17.6646ZM70.812 15.8198C71.2427 15.8198 71.6213 15.7031 71.9703 15.4917C72.3044 15.2583 72.5643 14.9521 72.7796 14.5802C72.9653 14.2083 73.0618 13.7635 73.0618 13.2677C73.0907 12.837 73.0054 12.4064 72.8141 12.0178C72.6227 11.6293 72.332 11.2962 71.9703 11.051C71.6228 10.8384 71.2215 10.7257 70.812 10.7257C70.4025 10.7257 70.0013 10.8384 69.6537 11.051C69.327 11.2844 69.0597 11.5906 68.8518 11.9625C68.6446 12.3689 68.5474 12.8209 68.5697 13.275C68.5407 13.7056 68.6261 14.1363 68.8174 14.5248C69.0087 14.9134 69.2994 15.2465 69.6611 15.4917C70.0101 15.7031 70.3665 15.8198 70.812 15.8198Z" fill="#FF385C"/>
</g>
<defs>
<clipPath id="clip0_266_7872">
<rect width="75.7353" height="23.3333" fill="white" transform="translate(0 0.333252)"/>
</clipPath>
</defs>
</svg>
