<svg width="71" height="24" viewBox="0 0 71 24" fill="none" xmlns="http://www.w3.org/2000/svg">
<g clip-path="url(#clip0_266_7915)">
<path d="M30.6672 12.2992C30.6672 15.538 28.1016 17.9246 24.9531 17.9246C21.8046 17.9246 19.239 15.538 19.239 12.2992C19.239 9.0376 21.8046 6.67383 24.9531 6.67383C28.1016 6.67383 30.6672 9.0376 30.6672 12.2992ZM28.1658 12.2992C28.1658 10.2753 26.6789 8.8905 24.9531 8.8905C23.2273 8.8905 21.7404 10.2753 21.7404 12.2992C21.7404 14.3028 23.2273 15.7079 24.9531 15.7079C26.6789 15.7079 28.1658 14.3003 28.1658 12.2992Z" fill="#EA4335"/>
<path d="M42.9941 12.2992C42.9941 15.538 40.4285 17.9246 37.28 17.9246C34.1315 17.9246 31.5659 15.538 31.5659 12.2992C31.5659 9.04013 34.1315 6.67383 37.28 6.67383C40.4285 6.67383 42.9941 9.0376 42.9941 12.2992ZM40.4927 12.2992C40.4927 10.2753 39.0058 8.8905 37.28 8.8905C35.5542 8.8905 34.0673 10.2753 34.0673 12.2992C34.0673 14.3028 35.5542 15.7079 37.28 15.7079C39.0058 15.7079 40.4927 14.3003 40.4927 12.2992Z" fill="#FBBC05"/>
<path d="M54.8075 7.01368V17.113C54.8075 21.2673 52.3267 22.964 49.3939 22.964C46.6331 22.964 44.9716 21.1405 44.3449 19.6492L46.5227 18.7539C46.9105 19.6695 47.8607 20.7499 49.3913 20.7499C51.2686 20.7499 52.432 19.6061 52.432 17.4528V16.6438H52.3447C51.7848 17.326 50.7062 17.922 49.3451 17.922C46.497 17.922 43.8878 15.472 43.8878 12.3195C43.8878 9.14412 46.497 6.67383 49.3451 6.67383C50.7036 6.67383 51.7822 7.26984 52.3447 7.9318H52.432V7.01622H54.8075V7.01368ZM52.6092 12.3195C52.6092 10.3387 51.2712 8.8905 49.5685 8.8905C47.8427 8.8905 46.3969 10.3387 46.3969 12.3195C46.3969 14.28 47.8427 15.7079 49.5685 15.7079C51.2712 15.7079 52.6092 14.28 52.6092 12.3195Z" fill="#4285F4"/>
<path d="M58.724 1.09424V17.5797H56.2843V1.09424H58.724Z" fill="#34A853"/>
<path d="M68.2311 14.1507L70.1726 15.429C69.546 16.3446 68.0359 17.9221 65.4267 17.9221C62.1909 17.9221 59.7743 15.4518 59.7743 12.2967C59.7743 8.95146 62.2114 6.67139 65.1468 6.67139C68.1027 6.67139 69.5486 8.99458 70.0211 10.25L70.2805 10.8891L62.666 14.0036C63.249 15.1323 64.1555 15.708 65.4267 15.708C66.7005 15.708 67.584 15.0891 68.2311 14.1507ZM62.2551 12.1268L67.3451 10.0395C67.0652 9.33697 66.2229 8.84747 65.2316 8.84747C63.9603 8.84747 62.1909 9.95581 62.2551 12.1268Z" fill="#EA4335"/>
<path d="M10.0041 10.8357V8.44913H18.1477C18.2273 8.86508 18.2684 9.3571 18.2684 9.88971C18.2684 11.6803 17.7727 13.8944 16.1753 15.472C14.6216 17.0698 12.6365 17.922 10.0067 17.922C5.13242 17.922 1.03369 14.0009 1.03369 9.18718C1.03369 4.37341 5.13242 0.452393 10.0067 0.452393C12.7032 0.452393 14.6242 1.49732 16.0675 2.85928L14.3622 4.54334C13.3273 3.58464 11.9251 2.83899 10.0041 2.83899C6.44473 2.83899 3.66088 5.67196 3.66088 9.18718C3.66088 12.7024 6.44473 15.5354 10.0041 15.5354C12.3129 15.5354 13.6278 14.6198 14.4701 13.7879C15.1532 13.1133 15.6027 12.1495 15.7799 10.8332L10.0041 10.8357Z" fill="#4285F4"/>
</g>
<defs>
<clipPath id="clip0_266_7915">
<rect width="69.8529" height="23.3333" fill="white" transform="translate(0.941162 0.333252)"/>
</clipPath>
</defs>
</svg>
