<svg width="90" height="20" viewBox="0 0 90 20" fill="none" xmlns="http://www.w3.org/2000/svg">
<g clip-path="url(#clip0_266_7896)">
<path d="M31.917 11.4401L31.3867 12.9391H31.3425C31.2541 12.6011 31.092 12.0867 30.8268 11.4694L27.9833 4.3417H25.1987V15.702H27.0404V8.69183C27.0404 8.25093 27.0404 7.75126 27.0256 7.13401C27.0109 6.82538 26.9814 6.59024 26.9667 6.41389H27.0109C27.0993 6.85478 27.2024 7.1781 27.2761 7.38385L30.6942 15.6726H31.9907L35.3793 7.31037C35.453 7.11931 35.5267 6.73721 35.6003 6.41389H35.6445C35.6003 7.25158 35.5709 8.0011 35.5561 8.45668V15.6579H37.5156V4.3123H34.8342L31.917 11.4401ZM39.372 7.51611H41.2873V15.6579H39.372V7.51611ZM40.3444 4.07716C40.0203 4.07716 39.7551 4.19473 39.5341 4.40048C39.3131 4.60623 39.1952 4.87077 39.1952 5.19409C39.1952 5.50271 39.3131 5.76724 39.5341 5.97299C39.7551 6.17874 40.0203 6.28162 40.3444 6.28162C40.6685 6.28162 40.9485 6.16405 41.1547 5.97299C41.3757 5.76724 41.4936 5.50271 41.4936 5.19409C41.4936 4.88546 41.3757 4.62093 41.1547 4.40048C40.9632 4.19473 40.6833 4.07716 40.3444 4.07716ZM48.0793 7.44263C47.7257 7.36915 47.3574 7.32506 47.0038 7.32506C46.1345 7.32506 45.3389 7.51611 44.676 7.89822C44.013 8.28033 43.4826 8.8094 43.1437 9.47073C42.7901 10.1468 42.6133 10.9257 42.6133 11.8222C42.6133 12.6011 42.7901 13.2918 43.129 13.9237C43.4678 14.541 43.9393 15.0407 44.5728 15.3787C45.1769 15.7167 45.8841 15.8931 46.6797 15.8931C47.5931 15.8931 48.374 15.702 48.9928 15.3493L49.0075 15.3346V13.571L48.9338 13.6298C48.6539 13.8356 48.3298 14.0119 48.0056 14.1148C47.6668 14.2324 47.3574 14.2911 47.0922 14.2911C46.3261 14.2911 45.722 14.0707 45.2947 13.5857C44.8528 13.1154 44.6318 12.4688 44.6318 11.6605C44.6318 10.8228 44.8528 10.1615 45.3095 9.67648C45.7662 9.1915 46.3703 8.94166 47.1069 8.94166C47.7257 8.94166 48.3592 9.14741 48.9338 9.55891L49.0075 9.6177V7.75126L48.9928 7.73656C48.7423 7.63369 48.4624 7.51611 48.0793 7.44263ZM54.3998 7.38385C53.9284 7.38385 53.4864 7.53081 53.1033 7.83944C52.7792 8.10397 52.5582 8.48608 52.3667 8.94166H52.3519V7.51611H50.4366V15.6579H52.3519V11.4988C52.3519 10.7934 52.4993 10.2056 52.8234 9.77936C53.1475 9.33847 53.56 9.11802 54.061 9.11802C54.2378 9.11802 54.4146 9.16211 54.6356 9.1915C54.8418 9.25029 54.9892 9.30907 55.0923 9.38256L55.166 9.44134V7.53081L55.1218 7.51611C54.9892 7.42794 54.724 7.38385 54.3998 7.38385ZM59.6154 7.33976C58.2747 7.33976 57.1991 7.73656 56.4477 8.51547C55.6816 9.29438 55.3133 10.3672 55.3133 11.7193C55.3133 12.9832 55.6964 14.0119 56.433 14.7614C57.1697 15.4963 58.1715 15.8784 59.4238 15.8784C60.7351 15.8784 61.7811 15.4816 62.5325 14.688C63.2987 13.8943 63.667 12.8362 63.667 11.5282C63.667 10.2349 63.3134 9.2062 62.5915 8.45668C61.899 7.70717 60.8824 7.33976 59.6154 7.33976ZM61.1476 13.6004C60.794 14.056 60.2342 14.2765 59.5417 14.2765C58.8492 14.2765 58.2894 14.056 57.8916 13.571C57.4938 13.1154 57.3023 12.4541 57.3023 11.6164C57.3023 10.7493 57.5085 10.088 57.8916 9.6177C58.2894 9.14741 58.8345 8.91227 59.527 8.91227C60.2047 8.91227 60.7351 9.13272 61.1181 9.5883C61.5012 10.0439 61.7075 10.7052 61.7075 11.5723C61.678 12.4541 61.5159 13.1448 61.1476 13.6004ZM67.9396 10.8963C67.3355 10.6464 66.9525 10.4554 66.7757 10.2937C66.6283 10.1468 66.5547 9.94102 66.5547 9.67648C66.5547 9.45604 66.6431 9.23559 66.8641 9.08863C67.0851 8.94166 67.3355 8.86818 67.7039 8.86818C68.028 8.86818 68.3669 8.92697 68.691 9.01515C69.0151 9.10332 69.3098 9.23559 69.5455 9.41195L69.6192 9.47073V7.67777L69.575 7.66308C69.354 7.5749 69.0593 7.48672 68.7057 7.41324C68.3521 7.35445 68.028 7.32506 67.7628 7.32506C66.8493 7.32506 66.098 7.54551 65.5086 8.03049C64.9193 8.48608 64.6394 9.10332 64.6394 9.82345C64.6394 10.2056 64.6983 10.5436 64.8309 10.8228C64.9635 11.102 65.155 11.3666 65.4202 11.587C65.6854 11.7928 66.0685 12.0279 66.5989 12.2484C67.0409 12.4394 67.3797 12.5864 67.586 12.7039C67.7923 12.8215 67.9249 12.9538 68.028 13.0567C68.1017 13.1742 68.1459 13.3212 68.1459 13.5122C68.1459 14.056 67.7333 14.3205 66.8935 14.3205C66.5694 14.3205 66.2306 14.2618 65.8328 14.1295C65.435 13.9972 65.0666 13.8062 64.7572 13.5857L64.6836 13.5269V15.3934L64.7278 15.4081C65.0077 15.5403 65.3466 15.6285 65.7591 15.7314C66.1716 15.8049 66.5399 15.8637 66.8641 15.8637C67.8512 15.8637 68.6615 15.6432 69.2361 15.1582C69.8254 14.688 70.1348 14.0854 70.1348 13.3065C70.1348 12.7627 69.9875 12.2777 69.6634 11.9103C69.2361 11.5576 68.7057 11.1902 67.9396 10.8963ZM75.1883 7.33976C73.8476 7.33976 72.7721 7.73656 72.0207 8.51547C71.2693 9.29438 70.8862 10.3672 70.8862 11.7193C70.8862 12.9832 71.2693 14.0119 72.0059 14.7614C72.7426 15.4963 73.7445 15.8784 74.9968 15.8784C76.308 15.8784 77.3541 15.4816 78.1055 14.688C78.8716 13.8943 79.2399 12.8362 79.2399 11.5282C79.2399 10.2349 78.8863 9.2062 78.1644 8.45668C77.4719 7.70717 76.4554 7.33976 75.1883 7.33976ZM76.7058 13.6004C76.3522 14.056 75.7924 14.2765 75.0999 14.2765C74.3927 14.2765 73.8476 14.056 73.4498 13.571C73.052 13.1154 72.8605 12.4541 72.8605 11.6164C72.8605 10.7493 73.0667 10.088 73.4498 9.6177C73.8476 9.14741 74.3927 8.91227 75.0852 8.91227C75.7482 8.91227 76.2933 9.13272 76.6764 9.5883C77.0594 10.0439 77.2657 10.7052 77.2657 11.5723C77.2657 12.4541 77.0742 13.1448 76.7058 13.6004ZM89.4795 9.08863V7.51611H87.5494V5.10591L87.4905 5.1206L85.6636 5.66437L85.6194 5.67907V7.51611H82.7317V6.48737C82.7317 6.01708 82.8495 5.64967 83.0558 5.41453C83.2621 5.17939 83.5715 5.06182 83.9545 5.06182C84.2197 5.06182 84.4997 5.1206 84.8091 5.25287L84.8827 5.29696V3.63627L84.8385 3.62157C84.5733 3.53339 84.2197 3.47461 83.763 3.47461C83.1884 3.47461 82.6875 3.60688 82.2308 3.82732C81.774 4.07716 81.4352 4.41518 81.1847 4.87077C80.9342 5.31166 80.8016 5.81133 80.8016 6.38449V7.51611H79.4609V9.07393H80.8016V15.6579H82.7317V9.08863H85.6194V13.2771C85.6194 14.9966 86.4297 15.8637 88.0504 15.8637C88.3155 15.8637 88.5955 15.8196 88.8607 15.7755C89.1406 15.7167 89.3469 15.6432 89.4647 15.5844L89.4795 15.5697V13.9972L89.4058 14.056C89.2879 14.1295 89.1848 14.1883 89.008 14.2324C88.8607 14.2765 88.7281 14.2911 88.6249 14.2911C88.2419 14.2911 87.9767 14.203 87.7852 13.9825C87.6084 13.7768 87.52 13.4388 87.52 12.9391V9.08863H89.4795Z" fill="#737373"/>
<path d="M0.505859 0.520752H9.53728V9.52963H0.505859V0.520752Z" fill="#F25022"/>
<path d="M10.4802 0.520752H19.5116V9.52963H10.4802V0.520752Z" fill="#7FBA00"/>
<path d="M0.505981 10.4702H9.5374V19.4791H0.505981V10.4702Z" fill="#00A4EF"/>
<path d="M10.4802 10.4702H19.5116V19.4791H10.4802V10.4702Z" fill="#FFB900"/>
</g>
<defs>
<clipPath id="clip0_266_7896">
<rect width="88.9882" height="18.9583" fill="white" transform="translate(0.505859 0.520752)"/>
</clipPath>
</defs>
</svg>
