<svg width="63" height="22" viewBox="0 0 63 22" fill="none" xmlns="http://www.w3.org/2000/svg">
<path d="M51.4 21.675C57.2665 21.675 62.0399 16.8649 62.0399 10.9534C62.0399 5.03836 57.2665 0.231689 51.4 0.231689C45.5324 0.231689 40.7602 5.03836 40.7602 10.9534C40.7602 16.8649 45.5324 21.675 51.4 21.675ZM51.4 7.13019C53.4907 7.13019 55.1933 8.84519 55.1933 10.9522C55.1933 13.0592 53.4896 14.7719 51.3989 14.7719C49.307 14.7719 47.6068 13.0592 47.6068 10.951C47.6068 8.84169 49.3082 7.12786 51.3989 7.12786L51.4 7.13019ZM11.2576 21.675C17.1241 21.675 21.8975 16.8649 21.8975 10.9534C21.8975 5.03836 17.1241 0.231689 11.2576 0.231689C5.39233 0.231689 0.617798 5.03836 0.617798 10.9534C0.617798 16.8649 5.39233 21.675 11.2576 21.675ZM11.2576 7.13019C13.3495 7.13019 15.0509 8.84519 15.0509 10.9522C15.0509 13.0592 13.3495 14.7719 11.2576 14.7719C9.16697 14.7719 7.46669 13.0592 7.46669 10.951C7.46669 8.84169 9.16813 7.12786 11.2576 7.12786V7.13019ZM31.323 6.88869L28.0565 0.371689H20.4081L27.5519 14.6284V21.3402H35.0953V14.6284L42.2391 0.371689H34.5872L31.3242 6.88869H31.323Z" fill="#EE2E24"/>
</svg>
