<svg width="112" height="52" viewBox="0 0 112 52" fill="none" xmlns="http://www.w3.org/2000/svg">
<path d="M54.5164 28.3517L58.1776 30.2197C57.412 31.2034 56.4524 31.9936 55.2985 32.5901C54.1447 33.1866 52.8855 33.4848 51.5208 33.4848C49.9898 33.4848 48.5919 33.1133 47.3271 32.3703C46.0734 31.6273 45.0694 30.6331 44.315 29.3877C43.5716 28.1319 43.2 26.7453 43.2 25.2278C43.2 24.0766 43.4163 23.004 43.849 22.0098C44.2817 21.0051 44.8752 20.126 45.6297 19.3725C46.3952 18.6086 47.2827 18.0121 48.2923 17.583C49.3019 17.1539 50.3781 16.9394 51.5208 16.9394C52.8855 16.9394 54.1447 17.2376 55.2985 17.8342C56.4524 18.4307 57.412 19.2313 58.1776 20.2359L54.5164 22.0883C54.1281 21.6697 53.6676 21.3452 53.1351 21.115C52.6137 20.8848 52.0756 20.7696 51.5208 20.7696C50.722 20.7696 50.0009 20.979 49.3574 21.3976C48.7139 21.8057 48.2036 22.3499 47.8264 23.0301C47.4492 23.6999 47.2605 24.4325 47.2605 25.2278C47.2605 26.0127 47.4492 26.7453 47.8264 27.4255C48.2036 28.0953 48.7139 28.6342 49.3574 29.0424C50.0009 29.4505 50.722 29.6546 51.5208 29.6546C52.0978 29.6546 52.6469 29.5395 53.1684 29.3092C53.6898 29.0685 54.1392 28.7494 54.5164 28.3517Z" fill="#101010"/>
<path d="M67.9676 33.4848C66.4366 33.4848 65.0387 33.1133 63.7739 32.3703C62.5202 31.6273 61.5161 30.6331 60.7617 29.3877C60.0184 28.1319 59.6467 26.7453 59.6467 25.2278C59.6467 24.0766 59.8631 23.004 60.2957 22.0098C60.7284 21.0051 61.322 20.126 62.0764 19.3725C62.8419 18.6086 63.7295 18.0121 64.7391 17.583C65.7487 17.1539 66.8249 16.9394 67.9676 16.9394C69.4987 16.9394 70.891 17.3109 72.1447 18.0539C73.4095 18.797 74.4135 19.7964 75.1569 21.0522C75.9113 22.308 76.2885 23.6999 76.2885 25.2278C76.2885 26.3685 76.0722 27.436 75.6395 28.4302C75.2068 29.4244 74.6077 30.3034 73.8422 31.0674C73.0877 31.8209 72.2057 32.4122 71.1961 32.8412C70.1976 33.2703 69.1214 33.4848 67.9676 33.4848ZM67.9676 29.6546C68.7775 29.6546 69.5042 29.4505 70.1477 29.0424C70.7912 28.6342 71.296 28.0953 71.6621 27.4255C72.0393 26.7557 72.2279 26.0232 72.2279 25.2278C72.2279 24.4115 72.0338 23.6685 71.6454 22.9987C71.2682 22.3185 70.7523 21.7795 70.0978 21.3819C69.4543 20.9737 68.7442 20.7696 67.9676 20.7696C67.1688 20.7696 66.4477 20.9737 65.8042 21.3819C65.1607 21.79 64.6503 22.3342 64.2731 23.0144C63.8959 23.6947 63.7073 24.4325 63.7073 25.2278C63.7073 26.0546 63.9015 26.8028 64.2898 27.4726C64.6781 28.1424 65.194 28.6761 65.8375 29.0738C66.492 29.461 67.2021 29.6546 67.9676 29.6546Z" fill="#101010"/>
<path d="M89.2626 28.3517L92.9238 30.2197C92.1583 31.2034 91.1986 31.9936 90.0448 32.5901C88.8909 33.1866 87.6317 33.4848 86.2671 33.4848C84.736 33.4848 83.3381 33.1133 82.0733 32.3703C80.8197 31.6273 79.8156 30.6331 79.0612 29.3877C78.3178 28.1319 77.9462 26.7453 77.9462 25.2278C77.9462 24.0766 78.1625 23.004 78.5952 22.0098C79.0279 21.0051 79.6215 20.126 80.3759 19.3725C81.1414 18.6086 82.029 18.0121 83.0386 17.583C84.0482 17.1539 85.1243 16.9394 86.2671 16.9394C87.6317 16.9394 88.8909 17.2376 90.0448 17.8342C91.1986 18.4307 92.1583 19.2313 92.9238 20.2359L89.2626 22.0883C88.8743 21.6697 88.4139 21.3452 87.8813 21.115C87.3599 20.8848 86.8218 20.7696 86.2671 20.7696C85.4683 20.7696 84.7471 20.979 84.1036 21.3976C83.4602 21.8057 82.9498 22.3499 82.5726 23.0301C82.1954 23.6999 82.0068 24.4325 82.0068 25.2278C82.0068 26.0127 82.1954 26.7453 82.5726 27.4255C82.9498 28.0953 83.4602 28.6342 84.1036 29.0424C84.7471 29.4505 85.4683 29.6546 86.2671 29.6546C86.844 29.6546 87.3932 29.5395 87.9146 29.3092C88.4361 29.0685 88.8854 28.7494 89.2626 28.3517Z" fill="#101010"/>
<path d="M107.939 17.3789H112V33.0767H107.939L107.756 31.1302C107.301 31.8313 106.697 32.4017 105.942 32.8412C105.199 33.2703 104.317 33.4848 103.296 33.4848C102.065 33.4848 100.911 33.2651 99.8348 32.8255C98.7586 32.386 97.8101 31.779 96.9891 31.0046C96.1792 30.2302 95.5412 29.3354 95.0753 28.3203C94.6204 27.3052 94.3929 26.2168 94.3929 25.0551C94.3929 23.9354 94.6093 22.8836 95.042 21.8999C95.4858 20.9162 96.1015 20.0528 96.8892 19.3098C97.6769 18.5667 98.5867 17.9859 99.6185 17.5673C100.65 17.1487 101.76 16.9394 102.947 16.9394C104.045 16.9394 105.027 17.1696 105.892 17.6301C106.769 18.0906 107.512 18.6766 108.122 19.3882L107.939 17.3789ZM103.196 29.7959C104.062 29.7959 104.827 29.5918 105.493 29.1837C106.159 28.7755 106.68 28.2261 107.057 27.5354C107.435 26.8342 107.623 26.065 107.623 25.2278C107.623 24.3801 107.435 23.6109 107.057 22.9202C106.68 22.2191 106.153 21.6644 105.476 21.2563C104.811 20.8481 104.051 20.6441 103.196 20.6441C102.342 20.6441 101.56 20.8534 100.85 21.272C100.151 21.6801 99.5907 22.2295 99.1691 22.9202C98.7586 23.6109 98.5534 24.3801 98.5534 25.2278C98.5534 26.0755 98.7642 26.8447 99.1858 27.5354C99.6074 28.2261 100.168 28.7755 100.867 29.1837C101.577 29.5918 102.353 29.7959 103.196 29.7959Z" fill="#101010"/>
<ellipse cx="16.8" cy="24.0303" rx="16.8" ry="16.5455" fill="#101010"/>
<path d="M21.9586 27.9234L25.6 29.7353C24.7125 30.8716 23.5835 31.7805 22.2131 32.4623C20.8558 33.144 19.3809 33.4849 17.7887 33.4849C15.9875 33.4849 14.343 33.0603 12.8552 32.2111C11.3803 31.3619 10.1992 30.2257 9.31168 28.8024C8.43723 27.3672 8 25.7825 8 24.0483C8 22.7326 8.25451 21.5067 8.76352 20.3705C9.27253 19.2223 9.97078 18.2177 10.8583 17.3565C11.7588 16.4834 12.803 15.8017 13.9907 15.3113C15.1783 14.821 16.4443 14.5758 17.7887 14.5758C19.3809 14.5758 20.8558 14.9166 22.2131 15.5984C23.5835 16.2801 24.7125 17.1951 25.6 18.3432L21.9586 20.1552C21.4105 19.5572 20.7709 19.1027 20.04 18.7917C19.3092 18.4688 18.5587 18.3074 17.7887 18.3074C16.7184 18.3074 15.7461 18.5765 14.8716 19.1147C14.0102 19.6409 13.325 20.3406 12.816 21.2137C12.3201 22.0748 12.0721 23.0197 12.0721 24.0483C12.0721 25.0649 12.3266 26.0097 12.8356 26.8828C13.3446 27.744 14.0298 28.4377 14.8912 28.9639C15.7657 29.4902 16.7315 29.7533 17.7887 29.7533C18.5978 29.7533 19.3679 29.5858 20.0988 29.251C20.8297 28.9161 21.4496 28.4735 21.9586 27.9234Z" fill="white"/>
</svg>
