<svg width="112" height="16" viewBox="0 0 112 16" fill="none" xmlns="http://www.w3.org/2000/svg">
<path fill-rule="evenodd" clip-rule="evenodd" d="M8.98156 0.637182L10.6059 4.07318C10.7651 4.4105 11.0724 4.6444 11.4288 4.69852L15.0625 5.25234C15.9603 5.38959 16.3176 6.54169 15.6678 7.20183L13.0402 9.87524C12.7819 10.1381 12.6644 10.516 12.7255 10.8872L13.3456 14.6615C13.4983 15.5951 12.5598 16.3075 11.7573 15.8658L8.50952 14.0825C8.19113 13.9076 7.8098 13.9076 7.49048 14.0825L4.24267 15.8658C3.44021 16.3075 2.50168 15.5951 2.65533 14.6615L3.27453 10.8872C3.33562 10.516 3.21807 10.1381 2.95984 9.87524L0.33216 7.20183C-0.317586 6.54169 0.0396815 5.38959 0.937479 5.25234L4.57125 4.69852C4.92759 4.6444 5.2358 4.4105 5.395 4.07318L7.01844 0.637182C7.42013 -0.212394 8.57987 -0.212394 8.98156 0.637182Z" fill="#FFD33C"/>
<path fill-rule="evenodd" clip-rule="evenodd" d="M32.9816 0.637182L34.6059 4.07318C34.7651 4.4105 35.0724 4.6444 35.4288 4.69852L39.0625 5.25234C39.9603 5.38959 40.3176 6.54169 39.6678 7.20183L37.0402 9.87524C36.7819 10.1381 36.6644 10.516 36.7255 10.8872L37.3456 14.6615C37.4983 15.5951 36.5598 16.3075 35.7573 15.8658L32.5095 14.0825C32.1911 13.9076 31.8098 13.9076 31.4905 14.0825L28.2427 15.8658C27.4402 16.3075 26.5017 15.5951 26.6553 14.6615L27.2745 10.8872C27.3356 10.516 27.2181 10.1381 26.9598 9.87524L24.3322 7.20183C23.6824 6.54169 24.0397 5.38959 24.9375 5.25234L28.5712 4.69852C28.9276 4.6444 29.2358 4.4105 29.395 4.07318L31.0184 0.637182C31.4201 -0.212394 32.5799 -0.212394 32.9816 0.637182Z" fill="#FFD33C"/>
<path fill-rule="evenodd" clip-rule="evenodd" d="M56.9816 0.637182L58.6059 4.07318C58.7651 4.4105 59.0724 4.6444 59.4288 4.69852L63.0625 5.25234C63.9603 5.38959 64.3176 6.54169 63.6678 7.20183L61.0402 9.87524C60.7819 10.1381 60.6644 10.516 60.7255 10.8872L61.3456 14.6615C61.4983 15.5951 60.5598 16.3075 59.7573 15.8658L56.5095 14.0825C56.1911 13.9076 55.8098 13.9076 55.4905 14.0825L52.2427 15.8658C51.4402 16.3075 50.5017 15.5951 50.6553 14.6615L51.2745 10.8872C51.3356 10.516 51.2181 10.1381 50.9598 9.87524L48.3322 7.20183C47.6824 6.54169 48.0397 5.38959 48.9375 5.25234L52.5712 4.69852C52.9276 4.6444 53.2358 4.4105 53.395 4.07318L55.0184 0.637182C55.4201 -0.212394 56.5799 -0.212394 56.9816 0.637182Z" fill="#FFD33C"/>
<path fill-rule="evenodd" clip-rule="evenodd" d="M80.9816 0.637182L82.6059 4.07318C82.7651 4.4105 83.0724 4.6444 83.4288 4.69852L87.0625 5.25234C87.9603 5.38959 88.3176 6.54169 87.6678 7.20183L85.0402 9.87524C84.7819 10.1381 84.6644 10.516 84.7255 10.8872L85.3456 14.6615C85.4983 15.5951 84.5598 16.3075 83.7573 15.8658L80.5095 14.0825C80.1911 13.9076 79.8098 13.9076 79.4905 14.0825L76.2427 15.8658C75.4402 16.3075 74.5017 15.5951 74.6553 14.6615L75.2745 10.8872C75.3356 10.516 75.2181 10.1381 74.9598 9.87524L72.3322 7.20183C71.6824 6.54169 72.0397 5.38959 72.9375 5.25234L76.5712 4.69852C76.9276 4.6444 77.2358 4.4105 77.395 4.07318L79.0184 0.637182C79.4201 -0.212394 80.5799 -0.212394 80.9816 0.637182Z" fill="#FFD33C"/>
<path fill-rule="evenodd" clip-rule="evenodd" d="M104.982 0.637182L106.606 4.07318C106.765 4.4105 107.072 4.6444 107.429 4.69852L111.063 5.25234C111.96 5.38959 112.318 6.54169 111.668 7.20183L109.04 9.87524C108.782 10.1381 108.664 10.516 108.725 10.8872L109.346 14.6615C109.498 15.5951 108.56 16.3075 107.757 15.8658L104.51 14.0825C104.191 13.9076 103.81 13.9076 103.49 14.0825L100.243 15.8658C99.4402 16.3075 98.5017 15.5951 98.6553 14.6615L99.2745 10.8872C99.3356 10.516 99.2181 10.1381 98.9598 9.87524L96.3322 7.20183C95.6824 6.54169 96.0397 5.38959 96.9375 5.25234L100.571 4.69852C100.928 4.6444 101.236 4.4105 101.395 4.07318L103.018 0.637182C103.42 -0.212394 104.58 -0.212394 104.982 0.637182Z" fill="#FFD33C"/>
</svg>
